<svg width="100" height="21" viewBox="0 0 100 21" fill="none" xmlns="http://www.w3.org/2000/svg">
<path d="M12.7935 8.96992H3.41192V0.352051H0V20.6462H3.41192V11.8232H12.7935V20.6462H16.2054V0.352051H12.7935V8.96992Z" fill="white"/>
<path d="M60.0644 6.88182C60.0644 2.79424 57.4174 0.353516 52.9172 0.353516H46.1826V20.6465H49.5934V13.4113H53.0934L57.3583 20.6465H61.0935L56.0927 12.9118C58.6227 11.9997 60.0644 9.88231 60.0644 6.88182ZM52.8581 10.5591H49.5934V3.20566H52.8581C55.1528 3.20566 56.5343 4.55814 56.5343 6.88182C56.5343 9.20549 55.1528 10.5591 52.8581 10.5591Z" fill="white"/>
<path d="M77.6086 12.8816C77.6086 16.1765 75.9617 17.9995 73.0203 17.9995C70.05 17.9995 68.4031 16.1765 68.4031 12.8816V0.353516H64.9912V12.7646C64.9912 18.0285 67.8735 21 73.0203 21C78.1382 21 81.017 18.0285 81.017 12.7646V0.353516H77.6086V12.8816Z" fill="white"/>
<path d="M93.511 9.11737C91.4816 8.11257 89.5995 7.20628 89.5995 5.38211C89.5995 3.7596 90.8929 2.88228 92.8932 2.88228C94.3048 2.88228 96.275 3.35281 97.5985 4.0586L98.3936 1.20645C97.128 0.470529 94.7163 0 92.7762 0C88.9517 0 86.0694 1.94122 86.0694 5.38211C86.0694 8.85892 89.129 10.3238 91.7482 11.5581C93.8076 12.5293 95.6608 13.3521 95.6608 15.3235C95.6608 17.1465 94.0383 18.1177 91.8363 18.1177C89.9515 18.1166 88.0987 17.63 86.4565 16.7049L85.6035 19.6463C87.226 20.4993 89.8684 21 91.9858 21C96.4268 21 99.1921 18.7053 99.1921 15.2934C99.1874 11.7053 96.158 10.3238 93.511 9.11737Z" fill="white"/>
<path d="M31.2473 17.0702C32.5467 17.0702 33.8169 16.6849 34.8974 15.963C35.9778 15.2411 36.8199 14.215 37.3172 13.0144C37.8144 11.8139 37.9446 10.4929 37.691 9.21845C37.4375 7.94399 36.8118 6.77333 35.893 5.85449C34.9741 4.93566 33.8035 4.30993 32.529 4.05642C31.2546 3.80291 29.9335 3.93302 28.733 4.43029C27.5325 4.92756 26.5064 5.76966 25.7845 6.85009C25.0626 7.93053 24.6772 9.20077 24.6772 10.5002C24.6772 12.2427 25.3694 13.9138 26.6016 15.1459C27.8337 16.378 29.5048 17.0702 31.2473 17.0702ZM31.2473 7.20882C31.8982 7.20882 32.5346 7.40185 33.0759 7.76351C33.6171 8.12518 34.039 8.63922 34.2881 9.24064C34.5372 9.84206 34.6024 10.5039 34.4754 11.1423C34.3484 11.7808 34.0349 12.3673 33.5746 12.8276C33.1143 13.2879 32.5279 13.6013 31.8894 13.7283C31.2509 13.8553 30.5891 13.7902 29.9877 13.541C29.3863 13.2919 28.8722 12.8701 28.5106 12.3288C28.1489 11.7875 27.9559 11.1512 27.9559 10.5002C27.9557 10.0679 28.0408 9.63986 28.2061 9.24046C28.3715 8.84106 28.6139 8.47816 28.9196 8.1725C29.2252 7.86684 29.5881 7.6244 29.9875 7.45905C30.3869 7.29369 30.815 7.20866 31.2473 7.20882Z" fill="#032540"/>
<path d="M31.2474 0.353516C29.038 0.356206 26.8867 1.0624 25.1056 2.36974C23.3244 3.67708 22.0058 5.51765 21.3408 7.6247H23.3574C23.9819 6.04149 25.0683 4.68281 26.4753 3.72529C27.8824 2.76778 29.5449 2.25573 31.2468 2.25573C32.9488 2.25573 34.6113 2.76778 36.0184 3.72529C37.4254 4.68281 38.5118 6.04149 39.1363 7.6247H41.1529C40.4882 5.51774 39.1698 3.67721 37.3888 2.36986C35.6078 1.06251 33.4567 0.356272 31.2474 0.353516Z" fill="white"/>
<path d="M31.2474 18.7749C29.5458 18.7731 27.8839 18.2603 26.4771 17.3029C25.0703 16.3456 23.9835 14.9878 23.3574 13.4055H21.3408C22.0015 15.5164 23.319 17.3612 25.1014 18.6709C26.8838 19.9807 29.0379 20.6871 31.2497 20.6871C33.4616 20.6871 35.6157 19.9807 37.3981 18.6709C39.1805 17.3612 40.498 15.5164 41.1587 13.4055H39.1421C38.5159 14.9886 37.4283 16.347 36.0206 17.3044C34.6129 18.2618 32.9499 18.7742 31.2474 18.7749Z" fill="white"/>
</svg>
